<?xml version="1.0" encoding="UTF-8" standalone="no"?>
<svg
   xmlns:dc="http://purl.org/dc/elements/1.1/"
   xmlns:cc="http://creativecommons.org/ns#"
   xmlns:rdf="http://www.w3.org/1999/02/22-rdf-syntax-ns#"
   xmlns:svg="http://www.w3.org/2000/svg"
   xmlns="http://www.w3.org/2000/svg"
   xmlns:sodipodi="http://sodipodi.sourceforge.net/DTD/sodipodi-0.dtd"
   xmlns:inkscape="http://www.inkscape.org/namespaces/inkscape"
   width="1024"
   height="1024"
   viewBox="0 0 1024 1024"
   version="1.1"
   id="svg48"
   sodipodi:docname="lakka_switch.svg"
   inkscape:version="0.92.3 (2405546, 2018-03-11)">
  <metadata
     id="metadata54">
    <rdf:RDF>
      <cc:Work
         rdf:about="">
        <dc:format>image/svg+xml</dc:format>
        <dc:type
           rdf:resource="http://purl.org/dc/dcmitype/StillImage" />
        <dc:title></dc:title>
      </cc:Work>
    </rdf:RDF>
  </metadata>
  <defs
     id="defs52" />
  <sodipodi:namedview
     pagecolor="#000000"
     bordercolor="#666666"
     borderopacity="1"
     objecttolerance="10"
     gridtolerance="10"
     guidetolerance="10"
     inkscape:pageopacity="0"
     inkscape:pageshadow="2"
     inkscape:window-width="1920"
     inkscape:window-height="1027"
     id="namedview50"
     showgrid="false"
     inkscape:pagecheckerboard="true"
     showguides="true"
     inkscape:guide-bbox="true"
     inkscape:zoom="0.63451407"
     inkscape:cx="385.23036"
     inkscape:cy="507.81684"
     inkscape:window-x="-8"
     inkscape:window-y="-8"
     inkscape:window-maximized="1"
     inkscape:current-layer="layer2" />
  <g
     inkscape:groupmode="layer"
     id="layer4"
     inkscape:label="Layer 3">
    <path
       id="Rectangle"
       style="fill:#2fbf5e;fill-rule:evenodd;stroke:none;stroke-width:3.64266181"
       d="m 457.66797,643.27539 v 302.33984 c 0,24.14145 19.5695,43.71289 43.71094,43.71289 24.14145,10e-6 43.71289,-19.57144 43.71289,-43.71289 V 643.27539 Z" />
  </g>
  <g
     inkscape:groupmode="layer"
     id="layer1"
     inkscape:label="Layer 1"
     style="display:inline">
    <path
       id="path4"
       style="fill:#67d095;fill-opacity:1;stroke:#9386ca;stroke-width:0;stroke-miterlimit:4;stroke-dasharray:none;stroke-opacity:1"
       d="m 609.4707,373.53125 a 156.63446,156.63446 0 0 1 47.41016,95.03516 c 0.91411,0.0304 1.85118,0.10011 2.80469,0.19726 0.24626,-0.0678 0.49757,-0.12249 0.76172,-0.14648 1.03204,-0.0938 2.20632,0.16376 3.53906,0.80859 4.9683,0.98406 10.37831,2.82708 16.18945,5.75195 5.24019,2.63751 14.16617,6.64794 17.64063,11.48047 2.8785,4.00362 4.48997,8.79556 7.04882,13.00782 -0.15752,-0.30478 -0.30102,-0.61582 -0.41406,-0.94141 -0.13938,-0.40149 0.12766,-0.16523 0.49219,0.23437 -1.31083,-3.26149 -2.08143,-4.94603 0.18945,0.19727 0.4977,0.57755 1.12381,1.38299 1.45508,1.7832 1.47194,1.77831 2.82153,3.65334 4.23242,5.48047 0.11833,0.15212 0.22445,0.31182 0.33789,0.4668 -1.2281,-2.69989 -1.78428,-3.94388 -3.13086,-6.90234 -23.74312,-52.10936 -31.17255,-67.62906 -35.50586,-73.98633 -16.14154,-23.47515 -38.14076,-41.36812 -63.05078,-52.4668 z M 354.07031,433.9668 c -0.10666,0.0488 -0.17834,0.082 -0.28515,0.13086 -3.68091,10.33886 -6.30697,21.17734 -7.75,32.38672 0.0868,-0.01 0.16985,-0.0177 0.2539,-0.0254 a 156.63446,156.63446 0 0 1 7.78125,-32.49218 z m -9.07422,47.98632 c -0.0609,0.0995 -0.12195,0.20073 -0.18359,0.30079 -0.0402,1.45787 -0.0684,2.91915 -0.0684,4.38671 a 156.63446,156.63446 0 0 1 0.25195,-4.6875 z m -0.25195,4.6875 c 0,1.19642 0.0196,2.38823 0.0469,3.57813 0.0267,4.2e-4 0.0534,-3.6e-4 0.0801,0 a 156.63446,156.63446 0 0 1 -0.12695,-3.57813 z m -110.87305,2.50196 c -20.87872,9.86526 -24.50338,12.19535 -29.32617,15.76562 -49.38729,37.03781 -70.82952,93.77311 -58.63672,155.07813 1.63324,7.97689 5.4739,17.33123 32.00586,76.76172 27.36574,61.56209 30.35572,67.8667 32.74414,68.76562 2.38841,0.8989 23.5858,-8.57266 263.3418,-117.20703 52.2882,-23.69198 92.31646,-41.88135 127.32617,-57.82226 -2.88245,-0.74432 -5.76107,-1.50439 -8.64453,-2.2461 -3.88326,-1.93847 -7.55128,-4.54428 -10.60352,-7.72461 a 156.63446,156.63446 0 0 1 -80.69921,22.76172 156.63446,156.63446 0 0 1 -35.32813,-4.19727 l -11.58203,5.24805 -222.00391,100.58985 -19.66015,-44.84571 c -18.18048,-41.29022 -19.9461,-45.77193 -21.58789,-54.93359 -6.89235,-39.40499 8.41539,-77.90844 40.48242,-101.28711 2.23801,-1.66596 17.92157,-9.27238 40.73047,-19.9668 0.40888,-0.46227 1.14925,-1.18723 0.97656,-0.86328 -0.0961,0.18022 -0.19395,0.3594 -0.29102,0.53906 0.12731,-0.0597 0.21211,-0.10031 0.33985,-0.16015 1.31825,-0.87932 2.60272,-1.81722 3.88281,-2.76367 0.57446,-0.66682 0.87,-0.95523 0.50195,-0.38868 -0.008,0.0123 -0.0231,0.0305 -0.0312,0.043 1.19467,-0.87892 2.40062,-1.73977 3.64844,-2.51758 1.42066,-2.02978 1.11887,-2.12998 3.71485,-2.91406 0.05,-0.65073 0.0974,-1.27832 0.14648,-1.96484 0.0464,-0.41779 0.10424,-0.83513 0.14062,-1.25391 0.0226,-0.26072 -0.05,0.52274 -0.10156,0.7793 -0.012,0.0596 -0.0169,-0.12086 -0.0195,-0.18164 -0.0157,-0.35974 -0.0266,-0.72009 -0.0352,-1.08008 -0.0124,-0.51765 -0.0198,-1.03501 -0.0293,-1.55273 -1.8e-4,-0.13933 0.002,-0.27865 0.002,-0.41797 -18.5098,-3.63215 -35.85422,-10.51222 -51.4043,-20.04297 z m 43.9375,31.14648 c -0.15677,0.11534 -0.31413,0.22994 -0.4707,0.34571 -0.32129,0.37294 -0.81532,0.99361 -1.25977,1.54101 0.14556,-0.0681 0.32268,-0.15044 0.46876,-0.21875 0.50132,-0.6209 0.95835,-1.20607 1.26171,-1.66797 z m 7.20508,-2.98828 c -0.005,7.5e-4 -0.009,7e-4 -0.0137,0.002 -0.21683,0.36262 -0.3779,0.66147 -0.55859,0.98243 0.17756,-0.0827 0.35891,-0.16624 0.53906,-0.25 0.008,-0.24282 0.0213,-0.48992 0.0332,-0.73438 z" />
    <path
       id="path1413"
       style="fill:#67d095;fill-opacity:1;stroke:#9386ca;stroke-width:0;stroke-miterlimit:4;stroke-dasharray:none;stroke-opacity:1"
       d="m 386.59375,380.34961 c -0.17216,0.0983 -0.34773,0.19003 -0.51953,0.28906 -1.47856,1.60749 -2.91892,3.24961 -4.33008,4.91797 1.5769,-1.77218 3.19385,-3.5083 4.84961,-5.20703 z m -5.11328,5.51367 c -3.31223,3.93638 -6.42997,8.04207 -9.34766,12.29492 2.91181,-4.24953 6.03149,-8.35282 9.34766,-12.29492 z m -9.40625,12.38086 c -13.64689,19.92011 -22.80993,43.14972 -26.03711,68.24024 0.0601,-0.007 0.11701,-0.0118 0.17578,-0.0176 3.13011,-24.45953 11.99091,-47.83449 25.86133,-68.22266 z m 275.45508,32.12109 c 4.66945,12.29427 7.77199,25.12767 9.23437,38.19727 0.94813,0.0287 1.92334,0.10244 2.91406,0.20312 0.24867,-0.069 0.50261,-0.12418 0.76954,-0.14843 1.0304,-0.0936 2.20308,0.16212 3.5332,0.80469 4.96975,0.98385 10.38223,2.83 16.19531,5.75585 5.24019,2.63751 14.16617,6.64794 17.64063,11.48047 2.8785,4.00362 4.48997,8.79556 7.04882,13.00782 -0.15752,-0.30478 -0.30102,-0.61582 -0.41406,-0.94141 -0.13938,-0.40149 0.12766,-0.16523 0.49219,0.23437 -1.31083,-3.26149 -2.08143,-4.94603 0.18945,0.19727 0.4977,0.57755 1.12381,1.38299 1.45508,1.7832 1.47194,1.77831 2.82153,3.65334 4.23242,5.48047 1.70032,2.1859 2.87644,4.67781 4.08789,7.14453 0.043,0.0199 0.0879,0.0407 0.13086,0.0606 -0.28541,-0.45329 -0.61116,-0.93721 -0.41992,-0.67383 0.17117,0.23574 0.33579,0.47633 0.50586,0.71289 34.44222,15.96246 -58.44454,20.14667 -55.54444,22.3055 32.06703,23.37867 78.10894,76.85421 71.21655,116.2592 -1.64178,9.16166 -0.25734,34.13149 65.87867,47.84155 l -42.51229,-115.11922 -66.767,-66.70565 -146.24805,119.79948 c -12.97756,3.44071 -26.34364,5.19861 -39.76953,5.23047 -19.92696,-0.11237 -39.64945,-4.02611 -58.10938,-11.53125 -1.04226,1.44952 -2.20024,2.84477 -3.50781,4.15234 6.11951,0.63568 0.17475,3.35799 -7.23242,5.6875 30.01122,13.64293 63.00912,28.62477 102.95117,46.72266 239.756,108.63437 260.95339,118.10593 263.3418,117.20703 2.38842,-0.89892 5.3784,-7.20353 32.74414,-68.76562 26.53196,-59.43049 30.37262,-68.78483 32.00586,-76.76172 12.1928,-61.30502 -9.24943,-118.04032 -58.63672,-155.07813 -9.19774,-6.80902 -12.2174,-8.30857 -144,-68.41601 -5.02239,-2.29879 -8.70258,-3.97535 -13.40625,-6.12696 z m -302.55274,51.61915 c -0.0548,0.0894 -0.11064,0.17964 -0.16601,0.26953 -0.0402,1.45795 -0.0664,2.91907 -0.0664,4.38671 0.0544,-1.55315 0.13185,-3.1054 0.23242,-4.65624 z m -0.23242,4.65624 c 0,1.19622 0.0177,2.38842 0.0449,3.57813 0.0436,6.9e-4 0.0873,-5.3e-4 0.13086,0 -0.0722,-1.192 -0.13083,-2.38479 -0.17578,-3.57813 z"
       inkscape:connector-curvature="0"
       sodipodi:nodetypes="ccccccccccccccccccsccccccccccccccccccccsccccccccccccccccc" />
    <circle
       style="fill:#67d095;fill-opacity:1;fill-rule:evenodd;stroke:none;stroke-width:0;stroke-miterlimit:4;stroke-dasharray:none;stroke-opacity:1;paint-order:normal"
       id="path1576"
       cx="283.25766"
       cy="630.42169"
       r="45" />
  </g>
  <g
     inkscape:groupmode="layer"
     id="layer2"
     inkscape:label="Layer 2">
    <g
       id="Page-1"
       style="fill:none;fill-rule:evenodd;stroke:none;stroke-width:1"
       transform="matrix(3.6426618,0,0,3.6426618,137.1128,31.307749)">
      <g
         id="lakka_switch">
        <g
           id="Group"
           transform="translate(6)">
          <path
             d="M 85.56035,82.827926 C 65.853249,86.749858 51,104.14035 51,125 c 0,2.09576 0.14993,4.15649 0.43965,6.17207 C 48.71066,131.71517 45.888592,132 43,132 19.251756,132 0,112.74824 0,89 0,65.251756 19.251756,46 43,46 64.652488,46 82.567089,62.003793 85.56035,82.827926 Z"
             id="Oval-Copy-8"
             inkscape:connector-curvature="0"
             style="stroke:#ff3020;stroke-width:12;stroke-opacity:1" />
          <path
             d="M 96.486166,82.070673 C 98.009029,71.312274 103.02596,61.677579 110.35177,54.351768 119.21902,45.484512 131.46902,40 145,40 c 13.53098,0 25.78098,5.484512 34.64823,14.351768 C 188.51549,63.219024 194,75.469024 194,89 c 0,13.53098 -5.48451,25.78098 -14.35177,34.64823 C 170.78098,132.51549 158.53098,138 145,138 c -3.32364,0 -6.56999,-0.33091 -9.7079,-0.96158 C 136.4039,133.21844 137,129.17883 137,125 137,102.08624 119.07744,83.358523 96.486166,82.070673 Z"
             id="Oval-Copy-7"
             inkscape:connector-curvature="0"
             style="fill:#0196e2;fill-opacity:1" />
          <circle
             id="Oval-Copy-4"
             cx="94"
             cy="125"
             r="43"
             style="stroke:#01bbe2;stroke-width:12;stroke-opacity:1" />
          <path
             d="M 45,49 C 45,35.469024 50.484512,23.219024 59.351768,14.351768 68.219024,5.4845118 80.469024,0 94,0 107.53098,0 119.78098,5.4845118 128.64823,14.351768 137.51549,23.219024 143,35.469024 143,49 143,62.530976 137.51549,74.780976 128.64823,83.648232 119.78098,92.515488 107.53098,98 94,98 80.469024,98 68.219024,92.515488 59.351768,83.648232 50.484512,74.780976 45,62.530976 45,49 Z"
             id="Oval"
             inkscape:connector-curvature="0"
             style="fill:#ff5f53;fill-opacity:1" />
        </g>
      </g>
    </g>
  </g>
</svg>
